<?xml version="1.0" encoding="UTF-8" standalone="no"?>
<svg
   xmlns:dc="http://purl.org/dc/elements/1.1/"
   xmlns:cc="http://creativecommons.org/ns#"
   xmlns:rdf="http://www.w3.org/1999/02/22-rdf-syntax-ns#"
   xmlns:svg="http://www.w3.org/2000/svg"
   xmlns="http://www.w3.org/2000/svg"
   xmlns:xlink="http://www.w3.org/1999/xlink"
   xmlns:sodipodi="http://sodipodi.sourceforge.net/DTD/sodipodi-0.dtd"
   xmlns:inkscape="http://www.inkscape.org/namespaces/inkscape"
   width="1000"
   height="1000"
   viewBox="0 0 264.58333 264.58333"
   version="1.1"
   id="svg2673"
   inkscape:version="1.0 (4035a4fb49, 2020-05-01)"
   sodipodi:docname="text-logo.svg"
   inkscape:export-filename="C:\Users\sandbox\Desktop\text.jpg.png"
   inkscape:export-xdpi="96"
   inkscape:export-ydpi="96">
  <defs
     id="defs2667">
    <linearGradient
       spreadMethod="pad"
       y2="0"
       x2="1"
       y1="0"
       x1="0"
       gradientTransform="matrix(108.71064,108.71064,108.71064,-108.71064,954.11094,-53.468366)"
       gradientUnits="userSpaceOnUse"
       id="linearGradient2625"
       xlink:href="#sandbox-gradient"
       inkscape:collect="always" />
    <linearGradient
       x1="0"
       y1="0"
       x2="1"
       y2="0"
       gradientUnits="userSpaceOnUse"
       gradientTransform="matrix(410.87485,410.87485,410.87485,-410.87485,2535.0623,-456.32419)"
       spreadMethod="pad"
       id="sandbox-gradient">
      <stop
         style="stop-opacity:1;stop-color:#4cd6c8"
         offset="0"
         id="stop1512-4-5" />
      <stop
         style="stop-opacity:1;stop-color:#4cd6c8"
         offset="0.134642"
         id="stop1514-9-9" />
      <stop
         style="stop-opacity:1;stop-color:#14b0bf"
         offset="1"
         id="stop1516-6-7" />
    </linearGradient>
  </defs>
  <sodipodi:namedview
     guidetolerance="51"
     objecttolerance="51"
     gridtolerance="51"
     inkscape:pagecheckerboard="false"
     inkscape:snap-text-baseline="true"
     id="base"
     pagecolor="#ffffff"
     bordercolor="#666666"
     borderopacity="1.0"
     inkscape:pageopacity="1"
     inkscape:pageshadow="2"
     inkscape:zoom="0.47234733"
     inkscape:cx="472.07765"
     inkscape:cy="239.75261"
     inkscape:document-units="px"
     inkscape:current-layer="g169"
     inkscape:document-rotation="0"
     showgrid="false"
     inkscape:window-width="1920"
     inkscape:window-height="1017"
     inkscape:window-x="-8"
     inkscape:window-y="-8"
     inkscape:window-maximized="1"
     units="px"
     width="1000in"
     showguides="true"
     inkscape:guide-bbox="true" />
  <metadata
     id="metadata2670">
    <rdf:RDF>
      <cc:Work
         rdf:about="">
        <dc:format>image/svg+xml</dc:format>
        <dc:type
           rdf:resource="http://purl.org/dc/dcmitype/StillImage" />
        <dc:title></dc:title>
      </cc:Work>
    </rdf:RDF>
  </metadata>
  <g
     inkscape:label="Layer 1"
     inkscape:groupmode="layer"
     id="layer1">
    <g
       id="g916"
       transform="translate(-0.00475851,-11.299768)">
      <g
         id="g60"
         transform="translate(0,-17.066735)">
        <g
           id="g118">
          <g
             transform="translate(-1.9265056e-5,9.7682125e-5)"
             id="g135">
            <g
               id="g152">
              <g
                 transform="translate(0,-3.7646973e-5)"
                 id="g169">
                <g
                   style="stroke-width:0.998102"
                   id="g3291"
                   transform="matrix(1.0019011,0,0,1.0019011,-102.49433,85.676549)">
                  <g
                     id="g225-6-3-2"
                     transform="translate(548.96571,-155.01251)"
                     style="fill:#333333;stroke-width:0.998102">
                    <g
                       aria-label="sandbox"
                       id="text12-1-2-2-5"
                       style="font-size:61.063px;line-height:1.25;font-family:Cabin;-inkscape-font-specification:Cabin;fill:#333333;stroke-width:1.52368"
                       transform="translate(18.26647,184.91418)">
                      <path
                         d="m -431.53136,68.141552 q -3.57218,0 -6.1063,-0.793819 -2.53411,-0.793819 -4.18281,-1.679233 l 0.67169,-5.800985 q 1.55711,1.068603 3.93856,2.076142 2.41199,0.977008 5.43461,0.977008 2.62571,0 3.99963,-0.854882 1.40445,-0.885413 1.40445,-2.595177 0,-1.404449 -0.82435,-2.259331 -0.82436,-0.885414 -2.16774,-1.465512 -1.34339,-0.580099 -2.83943,-1.068603 -2.35093,-0.763287 -4.4576,-1.770826 -2.07614,-1.00754 -3.389,-2.686772 -1.28232,-1.709764 -1.28232,-4.518662 0,-2.44252 1.22126,-4.488131 1.22126,-2.04561 3.69431,-3.236339 2.50359,-1.22126 6.35055,-1.22126 2.93103,0 4.97664,0.641162 2.07614,0.61063 3.69431,1.465512 l -0.67169,5.648327 q -1.61817,-1.251791 -3.51113,-2.076142 -1.86242,-0.854882 -4.366,-0.854882 -2.32039,0 -3.69431,0.915945 -1.37392,0.885414 -1.37392,2.717304 0,1.954016 1.61817,2.839429 1.61817,0.885414 5.0377,2.045611 1.5571,0.519035 3.05315,1.251791 1.49604,0.702225 2.7173,1.709764 1.25179,1.007539 1.98455,2.503583 0.73276,1.496043 0.73276,3.572185 0,2.381457 -1.1602,4.427068 -1.12967,2.04561 -3.69431,3.327933 -2.53412,1.251792 -6.80853,1.251792 z"
                         style="fill:#333333;stroke-width:1.52368"
                         id="path16-2-0-7-1" />
                      <path
                         d="m -407.77976,68.141552 q -2.62571,0 -4.67132,-1.099134 -2.04561,-1.129666 -3.23634,-3.114213 -1.16019,-1.984548 -1.16019,-4.67132 0,-2.564646 1.16019,-4.366004 1.1602,-1.83189 3.08369,-3.05315 1.92348,-1.22126 4.21334,-1.923484 2.3204,-0.732756 4.70185,-1.068603 2.38146,-0.335846 4.42707,-0.366378 -0.0305,-3.572185 -1.52657,-4.823977 -1.49605,-1.282323 -4.5492,-1.282323 -1.83189,0 -3.75537,0.549567 -1.92349,0.519036 -4.33548,1.984548 l -0.73275,-5.190355 q 2.19827,-1.343386 4.91557,-2.137205 2.7173,-0.793819 5.6178,-0.793819 3.63324,0 6.0147,1.282323 2.38146,1.282323 3.57219,4.243878 1.19073,2.961556 1.19073,7.93819 v 7.022245 q 0,2.198268 0.18318,3.450059 0.21372,1.22126 0.88542,1.740296 0.67169,0.519035 2.04561,0.519035 h 0.73275 l -0.79381,5.159824 h -1.40445 q -2.25933,0 -3.66378,-0.488504 -1.37392,-0.488504 -2.2288,-1.373918 -0.85489,-0.915945 -1.43498,-2.167736 -1.61817,1.83189 -4.03016,2.931024 -2.38146,1.099134 -5.22089,1.099134 z m 1.95402,-5.007166 q 1.70976,0 3.51112,-0.854882 1.83189,-0.854882 3.08368,-2.381457 v -7.083308 q -3.41953,0.152658 -5.89258,0.82435 -2.44252,0.641162 -3.7859,1.954016 -1.31286,1.312855 -1.31286,3.358465 0,2.198268 1.1602,3.205808 1.1602,0.977008 3.23634,0.977008 z"
                         style="fill:#333333;stroke-width:1.52368"
                         id="path18-4-1-1-5" />
                      <path
                         d="M -384.77236,67.530922 V 37.3658 h 5.46513 l 0.76329,5.709391 -1.95401,-1.526575 q 2.47305,-2.564646 5.15982,-3.66378 2.68677,-1.099134 5.61779,-1.099134 6.25896,0 9.09839,3.846969 2.83943,3.816437 2.83943,10.166989 v 16.731262 h -6.38108 V 51.074444 q 0,-4.549194 -1.61817,-6.686399 -1.61817,-2.137205 -5.46514,-2.137205 -2.83943,0 -5.00717,1.312855 -2.1372,1.282323 -3.11421,3.846969 l 0.97701,-3.511123 v 23.631381 z"
                         style="fill:#333333;stroke-width:1.52368"
                         id="path20-9-32-1-5" />
                      <path
                         d="m -338.72228,68.141552 q -4.15228,0 -7.26649,-2.106674 -3.11422,-2.137205 -4.85451,-5.678859 -1.70976,-3.541654 -1.70976,-7.846595 0,-4.182815 1.61816,-7.755001 1.64871,-3.602717 4.73239,-5.770453 3.11421,-2.198268 7.48021,-2.198268 3.14475,0 5.73993,1.22126 2.59517,1.22126 4.366,3.694311 l -1.46551,1.129666 V 21.733672 h 6.38108 v 45.79725 h -5.83151 l -0.76329,-5.862048 1.74029,1.251791 q -1.6487,2.534115 -4.24387,3.877501 -2.59518,1.343386 -5.92312,1.343386 z m 1.03808,-5.465139 q 2.25933,0 4.09122,-1.129665 1.86242,-1.129666 2.93102,-3.388997 1.09913,-2.259331 1.09913,-5.648327 0,-3.236339 -1.09913,-5.526201 -1.0686,-2.320394 -2.93102,-3.511123 -1.83189,-1.22126 -4.09122,-1.22126 -2.62571,0 -4.51867,1.343386 -1.86242,1.312855 -2.86996,3.633249 -0.97701,2.289862 -0.97701,5.281949 0,2.869961 0.97701,5.190355 1.00754,2.289862 2.86996,3.633248 1.89296,1.343386 4.51867,1.343386 z"
                         style="fill:#333333;stroke-width:1.52368"
                         id="path22-4-44-4-2" />
                      <path
                         d="m -301.19906,68.141552 q -3.2974,0 -6.07577,-1.343386 -2.77837,-1.343386 -4.366,-3.877501 l 1.74029,-1.251791 -0.76329,5.862048 h -5.83151 v -45.79725 h 6.38108 V 42.86147 l -1.43498,-0.977008 q 1.7403,-2.289862 4.42707,-3.694311 2.68677,-1.404449 5.92311,-1.404449 4.30494,0 7.32756,2.198268 3.05315,2.167736 4.64079,5.739922 1.61817,3.572185 1.61817,7.755001 0,4.304941 -1.70977,7.877126 -1.70976,3.541654 -4.76291,5.678859 -3.05315,2.106674 -7.11384,2.106674 z m -0.85488,-5.465139 q 2.47305,0 4.24388,-1.343386 1.77082,-1.343386 2.7173,-3.66378 0.94648,-2.320394 0.94648,-5.190354 0,-2.961556 -0.94648,-5.251418 -0.94648,-2.320394 -2.7173,-3.633249 -1.77083,-1.343386 -4.24388,-1.343386 -2.50359,0 -4.39654,1.190729 -1.86242,1.190728 -2.93102,3.480591 -1.06861,2.259331 -1.06861,5.556733 0,3.358464 1.06861,5.617795 1.0686,2.259331 2.93102,3.419528 1.89295,1.160197 4.39654,1.160197 z"
                         style="fill:#333333;stroke-width:1.52368"
                         id="path24-5-6-3-1" />
                      <path
                         d="M -252.04239,67.530922 -241.72274,52.478893 -251.88973,37.3658 h 7.38862 l 6.65587,10.563899 6.16736,-10.563899 h 7.51075 l -9.95327,14.838309 10.16699,15.326813 h -7.38862 l -6.71693,-10.533368 -6.5948,10.533368 z"
                         style="fill:#333333;stroke-width:1.52368"
                         id="path28-7-2-2-4" />
                    </g>
                  </g>
                  <path
                     id="path2293"
                     d="m 283.37571,67.26741 v 2.61914 27.54688 H 311.4636 V 67.26741 Z m 5.23632,5.23828 h 17.61524 v 19.689459 h -17.61524 z"
                     style="color:#000000;font-style:normal;font-variant:normal;font-weight:normal;font-stretch:normal;font-size:61.063px;line-height:1.25;font-family:Cabin;-inkscape-font-specification:Cabin;font-variant-ligatures:normal;font-variant-position:normal;font-variant-caps:normal;font-variant-numeric:normal;font-variant-alternates:normal;font-variant-east-asian:normal;font-feature-settings:normal;font-variation-settings:normal;text-indent:0;text-align:start;text-decoration:none;text-decoration-line:none;text-decoration-style:solid;text-decoration-color:#000000;letter-spacing:normal;word-spacing:normal;text-transform:none;writing-mode:lr-tb;direction:ltr;text-orientation:mixed;dominant-baseline:auto;baseline-shift:baseline;text-anchor:start;white-space:normal;shape-padding:0;shape-margin:0;inline-size:0;clip-rule:nonzero;display:inline;overflow:visible;visibility:visible;opacity:1;isolation:auto;mix-blend-mode:normal;color-interpolation:sRGB;color-interpolation-filters:linearRGB;solid-color:#000000;solid-opacity:1;vector-effect:none;fill:url(#linearGradient2625);fill-opacity:1;fill-rule:nonzero;stroke:none;stroke-width:0.352108;stroke-linecap:butt;stroke-linejoin:miter;stroke-miterlimit:4;stroke-dasharray:none;stroke-dashoffset:0;stroke-opacity:1;color-rendering:auto;image-rendering:auto;shape-rendering:auto;text-rendering:auto;enable-background:accumulate;stop-color:#000000;stop-opacity:1" />
                </g>
              </g>
            </g>
          </g>
        </g>
      </g>
    </g>
    <text
       id="text870-3"
       y="241.32826"
       x="81.475807"
       style="font-size:21.053px;line-height:1.25;font-family:Cabin;-inkscape-font-specification:Cabin;stroke-width:0.264583"
       xml:space="preserve"><tspan
         style="stroke-width:0.264583"
         y="241.32826"
         x="81.475807"
         id="tspan868-3"
         sodipodi:role="line" /></text>
  </g>
</svg>
